<?xml version="1.0" encoding="UTF-8"?>
<!DOCTYPE svg PUBLIC "-//W3C//DTD SVG 1.1//EN" "http://www.w3.org/Graphics/SVG/1.1/DTD/svg11.dtd">
<!-- Creator: CorelDRAW 2018 (64 Bit) -->
<svg xmlns="http://www.w3.org/2000/svg" xml:space="preserve" width="41.6183mm" height="6.9935mm" version="1.1" style="shape-rendering:geometricPrecision; text-rendering:geometricPrecision; image-rendering:optimizeQuality; fill-rule:evenodd; clip-rule:evenodd"
viewBox="0 0 10275.76 1726.73"
 xmlns:xlink="http://www.w3.org/1999/xlink">
 <defs>
  <style type="text/css">
   <![CDATA[
    .fil0 {fill:#212529;fill-rule:nonzero}
    .fil1 {fill:#9FCE33;fill-rule:nonzero}
   ]]>
  </style>
 </defs>
 <g id="Capa_x0020_1">
  <metadata id="CorelCorpID_0Corel-Layer"/>
  <path class="fil0" d="M926.09 1419.43l-620.87 0 0 -1262.65c0,-100.34 -54.37,-154.69 -152.61,-154.69 -98.24,0 -152.61,54.34 -152.61,154.69l0 1390.17c0,87.8 48.1,135.87 135.9,135.87l790.19 0c85.7,0 133.8,-46 133.8,-131.7 0,-85.7 -48.1,-131.7 -133.8,-131.7z"/>
  <path id="1" class="fil0" d="M2563.29 1503.4l-434.82 -1315.26c-35.53,-112.88 -123.33,-177.7 -252.95,-177.7l-31.36 0c-129.6,0 -217.4,64.81 -252.93,177.7l-434.82 1315.26c-31.36,96.14 6.27,163.4 98.24,190.59 94.07,25.09 158.88,-10.47 188.14,-104.89l77.36 -242.83 677.31 0 79.43 242.83c27.18,94.42 94.07,129.97 188.14,104.89 92,-27.18 127.53,-94.44 98.27,-190.59zm-957.45 -420.53l252.95 -783.95 255.03 783.95 -507.98 0z"/>
  <path id="2" class="fil0" d="M3365.68 1703.74c255.03,0 487.07,-104.54 585.34,-319.84 20.89,-41.83 8.35,-125.43 -85.73,-165.15 -77.33,-31.36 -137.97,-8.37 -177.67,39.73 -75.28,108.69 -190.24,175.6 -321.94,175.6 -236.24,0 -393.02,-158.88 -393.02,-397.2l0 -363.74c0,-242.51 156.78,-403.47 390.92,-403.47 102.44,0 219.5,50.17 313.57,169.33 31.36,35.53 94.07,68.99 179.8,37.63 94.07,-35.53 100.34,-137.97 71.06,-190.24 -104.51,-186.04 -330.28,-286.39 -564.42,-286.39 -418.08,0 -696.12,261.3 -696.12,656.42l0 397.17c0,390.92 278.04,650.15 698.22,650.15z"/>
  <path id="3" class="fil0" d="M5188.58 20.91l-1005.52 0c-87.8,0 -135.87,45.97 -135.87,131.7 0,85.7 48.07,131.7 135.87,131.7l349.1 0 0 1262.65c0,100.34 54.37,154.69 152.61,154.69 98.24,0 152.61,-54.34 152.61,-154.69l0 -1262.65 351.2 0c87.8,0 135.87,-46 135.87,-131.7 0,-85.73 -48.07,-131.7 -135.87,-131.7z"/>
  <path id="4" class="fil0" d="M5646.4 1701.64c98.24,0 152.61,-54.34 152.61,-150.51l0 -1394.35c0,-100.34 -54.37,-154.69 -152.61,-154.69 -98.24,0 -152.61,54.34 -152.61,154.69l0 1394.35c0,96.17 54.37,150.51 152.61,150.51z"/>
  <path class="fil1" d="M7380.46 524.7l0 -52.27c0,-269.67 -196.51,-447.34 -493.37,-447.34l-662.67 0c-87.8,0 -135.9,48.07 -135.9,135.87l0 1390.17c0,100.34 54.37,154.69 152.61,154.69 98.24,0 152.61,-54.34 152.61,-154.69l0 -579.07 390.9 0 267.6 635.51c39.73,89.87 108.71,119.16 196.51,83.6 89.87,-37.63 117.06,-108.69 79.43,-196.49l-240.41 -553.98c181.87,-62.71 292.68,-213.23 292.68,-416.01zm-986.71 -236.21l476.63 0c121.26,0 204.86,79.43 204.86,200.68l0 18.81c0,121.23 -83.6,202.78 -204.86,202.78l-476.63 0 0 -422.28z"/>
  <path id="1" class="fil1" d="M8622.19 1423.6l-725.38 0 0 -451.54 662.67 0c85.73,0 133.8,-46 133.8,-131.7 0,-83.63 -48.07,-129.6 -133.8,-129.6l-662.67 0 0 -422.28 704.49 0c85.7,0 133.77,-46 133.77,-131.7 0,-85.73 -48.07,-131.7 -133.77,-131.7l-873.82 0c-87.8,0 -135.9,48.07 -135.9,135.87l0 1390.17c0,87.8 48.1,135.87 135.9,135.87l894.71 0c85.73,0 133.8,-46 133.8,-131.7 0,-85.7 -48.07,-131.7 -133.8,-131.7z"/>
  <path id="2" class="fil1" d="M9103.02 1687l493.34 0c407.64,0 679.41,-259.23 679.41,-645.95l0 -370.01c0,-386.75 -271.77,-645.95 -679.41,-645.95l-493.34 0c-87.8,0 -135.9,48.07 -135.9,135.87l0 1390.17c0,87.8 48.1,135.87 135.9,135.87zm169.33 -263.4l0 -1135.12 307.3 0c234.12,0 388.83,158.86 388.83,399.27l0 336.58c0,240.39 -154.71,399.27 -388.83,399.27l-307.3 0z"/>
 </g>
</svg>
